<svg xmlns="http://www.w3.org/2000/svg" width="200" height="161.458" viewBox="0 0 200 161.458"><g transform="translate(-15.064 -266.634)"><path d="M22.791,266.634V368.21a26.277,26.277,0,0,0,26.335,26.335H145.06A26.278,26.278,0,0,0,171.4,368.21V352.6c15.908,2.54,32.609-7.022,39.985-22.893,8.585-18.479,1.651-39-15.487-45.836a31.7,31.7,0,0,0-12.3-2.213,35.674,35.674,0,0,0-12.195,2.467V266.635Zm158.876,36.122h0a12.955,12.955,0,0,1,5.025.9c7,2.793,9.833,11.176,6.326,18.725S181,333.791,173.994,331a12.172,12.172,0,0,1-2.6-1.437V307.119a15.513,15.513,0,0,1,10.272-4.363Zm-9.392,105.236-.2,0H25.544a10.052,10.052,0,1,0,0,20.085H172.076a10.052,10.052,0,1,0,.2-20.09Z" transform="translate(0 0)"/></g></svg>